<svg width="113" height="113" viewBox="0 0 113 113" fill="none" xmlns="http://www.w3.org/2000/svg">
<rect width="113" height="113" rx="24" fill="white"/>
<g clip-path="url(#clip0_414_212)">
<rect width="81" height="81" transform="translate(16 16)" fill="white"/>
<path d="M58.171 15.9308C58.3018 15.9289 58.4326 15.9269 58.5673 15.9249C58.9431 15.9202 59.3186 15.9201 59.6943 15.9215C59.8072 15.9198 59.9202 15.918 60.0365 15.9162C60.7994 15.9267 61.1849 16.093 61.7207 16.6328C62.0089 17.1175 62.0371 17.41 62.0371 17.9775C61.7277 19.0605 60.595 19.5412 59.6641 20.0638C57.9053 21.0773 56.283 22.1938 54.795 23.5826C54.478 23.8779 54.1527 24.1563 53.8204 24.4342C48.3847 29.2177 45.0575 36.7879 44.3449 43.9009C44.28 44.9221 44.2796 45.9454 44.2788 46.9683C44.2787 47.0914 44.2786 47.2146 44.2785 47.3416C44.2827 50.4027 44.6903 53.252 45.584 56.1836C45.618 56.2952 45.652 56.4068 45.687 56.5218C46.9302 60.4967 48.9659 64.1669 51.7539 67.2578C51.9353 67.4719 52.1166 67.6861 52.2977 67.9005C57.0033 73.1929 63.5938 76.6235 70.5801 77.6992C70.6969 77.7175 70.8137 77.7358 70.9341 77.7547C78.1879 78.8419 85.8984 77.1153 92.0559 73.1428C92.4487 72.9336 92.7609 72.8416 93.2031 72.7949C93.7503 72.9742 94.1748 73.1557 94.6171 73.5266C94.9262 74.2176 94.9181 74.9725 94.6519 75.6807C94.4607 76.0483 94.2534 76.3986 94.0337 76.75C93.9169 76.9436 93.9169 76.9436 93.7977 77.1412C92.5869 79.1189 91.2376 81.0055 89.7227 82.7617C89.6223 82.8796 89.522 82.9975 89.4186 83.1189C87.55 85.2554 85.5329 87.2601 83.2363 88.9316C83.0544 89.0671 82.8725 89.2027 82.6906 89.3383C81.3947 90.2939 80.0475 91.1417 78.6484 91.9375C78.5485 91.9952 78.4485 92.0528 78.3455 92.1122C74.2187 94.4743 69.5778 95.9736 64.8848 96.6836C64.7068 96.7116 64.5289 96.7397 64.3456 96.7686C62.5178 97.0299 60.7074 97.0566 58.8632 97.0494C58.7054 97.0491 58.5477 97.0488 58.3852 97.0484C56.0919 97.0404 53.8493 96.9876 51.5957 96.5254C51.4336 96.4931 51.2715 96.4608 51.1045 96.4276C43.3988 94.8597 36.3887 91.3924 30.7129 85.9258C30.6086 85.8258 30.5043 85.7258 30.3968 85.6227C28.8954 84.1758 27.5145 82.7044 26.2832 81.0215C26.1494 80.8431 26.0155 80.6647 25.8815 80.4863C24.2869 78.3359 22.9935 76.0043 21.8535 73.5859C21.7823 73.436 21.7823 73.436 21.7097 73.283C17.1929 63.6731 17.0736 52.4377 20.5786 42.5058C21.7931 39.1806 23.4253 35.9621 25.4922 33.0859C25.609 32.9226 25.7259 32.7592 25.8463 32.5909C26.1948 32.1162 26.552 31.6504 26.916 31.1875C27.0345 31.0364 27.153 30.8853 27.2751 30.7296C29.2937 28.2531 31.5989 25.9376 34.1934 24.0684C34.3711 23.9355 34.5487 23.8024 34.7261 23.6691C36.8767 22.0722 39.2101 20.7811 41.6289 19.6387C41.7264 19.592 41.8238 19.5454 41.9242 19.4974C45.0001 18.0387 48.2537 17.087 51.5957 16.4746C51.7287 16.4487 51.8616 16.4228 51.9986 16.3961C54.0474 16.0063 56.0917 15.9477 58.171 15.9308Z" fill="#00B5AA"/>
<path d="M63.3027 33.877C63.6884 33.9035 63.6884 33.9035 64.0938 34.0352C64.2816 34.3299 64.2816 34.3299 64.4102 34.7174C64.4869 34.9321 64.4869 34.9321 64.5653 35.1512C64.6185 35.305 64.6717 35.4588 64.7266 35.6172C66.0416 39.0963 67.9542 40.8079 71.2129 42.4199C71.2129 42.681 71.2129 42.942 71.2129 43.2109C70.9547 43.3348 70.9547 43.3348 70.6913 43.4612C67.5004 45.0396 65.7427 47.0781 64.5653 50.4796C64.5141 50.6228 64.4629 50.766 64.4102 50.9135C64.3677 51.0413 64.3253 51.1692 64.2816 51.3009C64.0938 51.5957 64.0938 51.5957 63.6785 51.7174C63.5545 51.7295 63.4305 51.7415 63.3027 51.7539C62.9328 50.9541 62.6032 50.1506 62.3041 49.3215C61.2251 46.4775 59.2641 44.7534 56.5822 43.4649C56.1836 43.2109 56.1836 43.2109 56.047 42.863C56.0399 42.769 56.0327 42.675 56.0254 42.5781C56.5052 42.1904 56.9888 41.9359 57.5481 41.6783C60.2731 40.3291 61.7182 38.1458 62.7157 35.3651C62.8237 35.0386 62.9288 34.7112 63.0296 34.3825C63.1445 34.0352 63.1445 34.0352 63.3027 33.877Z" fill="#00ADB5"/>
<path d="M81.2687 52.8514C81.4596 52.8563 81.4596 52.8563 81.6543 52.8613C81.7022 52.98 81.7501 53.0987 81.7995 53.221C82.0103 53.7359 82.2265 54.2482 82.4453 54.7598C82.5042 54.8993 82.5632 55.0387 82.6239 55.1825C83.4098 56.902 84.6024 57.9852 86.2422 58.873C86.5636 59.0775 86.877 59.2907 87.1914 59.5059C87.171 59.8699 87.171 59.8699 87.0332 60.2969C86.6235 60.5608 86.6235 60.5608 86.0939 60.8011C83.9653 61.8578 82.9803 63.5154 82.1011 65.6535C82.0483 65.7816 81.9955 65.9097 81.941 66.0416C81.8996 66.152 81.8582 66.2623 81.8156 66.376C81.6543 66.625 81.6543 66.625 81.32 66.7406C81.2215 66.7546 81.123 66.7687 81.0215 66.7832C80.6729 66.2414 80.4114 65.6907 80.1679 65.0948C79.1462 62.6098 77.6897 61.3775 75.3262 60.1387C75.3404 59.7809 75.3404 59.7809 75.4844 59.3477C75.8326 59.111 76.1486 58.9286 76.5226 58.7445C78.5625 57.6525 79.7192 56.0647 80.448 53.86C80.4949 53.7028 80.5418 53.5455 80.5901 53.3835C80.7542 52.864 80.7542 52.864 81.2687 52.8514Z" fill="#00ADB5"/>
<path d="M83.7109 31.3457C83.972 31.3457 84.233 31.3457 84.502 31.3457C84.5805 31.5156 84.659 31.6855 84.7399 31.8605C85.6231 33.7279 86.4058 34.8439 88.2988 35.7754C88.3977 36.1907 88.3977 36.1907 88.2988 36.7246C87.931 37.001 87.5429 37.208 87.1395 37.4291C85.8622 38.1686 85.3622 39.1915 84.8184 40.5215C84.715 40.7335 84.6104 40.9449 84.502 41.1543C84.2409 41.1543 83.9799 41.1543 83.7109 41.1543C83.6228 40.973 83.5347 40.7917 83.444 40.6049C82.5316 38.7401 82.5316 38.7401 81.0215 37.3574C80.9026 37.2785 80.7837 37.1996 80.6612 37.1183C80.363 36.927 80.0626 36.7435 79.7559 36.5664C79.7837 36.2043 79.7837 36.2043 79.9141 35.7754C80.2768 35.4948 80.2768 35.4948 80.7347 35.2415C82.3362 34.2723 82.9387 32.9929 83.7109 31.3457Z" fill="#00ADB5"/>
</g>
<defs>
<clipPath id="clip0_414_212">
<rect width="81" height="81" fill="white" transform="translate(16 16)"/>
</clipPath>
</defs>
</svg>
